<svg width="480" height="480" viewBox="0 0 480 480" fill="none" xmlns="http://www.w3.org/2000/svg">
<circle cx="240" cy="240" r="240" fill="#E3DF8F"/>
<path d="M82.7227 97.8945C91.0352 100.566 99.125 102.125 106.992 102.57C115.008 103.016 123.617 103.09 132.82 102.793C136.828 102.793 140.762 102.57 144.621 102.125C148.48 101.68 152.34 101.383 156.199 101.234C160.207 100.938 164.141 100.863 168 101.012C171.859 101.16 175.719 101.754 179.578 102.793C181.062 103.238 182.473 103.832 183.809 104.574C185.293 105.168 186.703 105.762 188.039 106.355C191.602 107.691 194.199 109.027 195.832 110.363C197.613 111.551 199.32 113.703 200.953 116.82C203.922 118.305 206.52 119.789 208.746 121.273C210.973 122.758 212.828 124.391 214.312 126.172C215.945 127.953 217.281 130.031 218.32 132.406C219.359 134.633 220.324 137.305 221.215 140.422C222.105 143.984 222.402 147.621 222.105 151.332C221.809 154.895 221.141 158.383 220.102 161.797C219.062 165.062 217.801 168.18 216.316 171.148C214.832 174.117 213.348 176.715 211.863 178.941C210.23 181.02 208.523 183.023 206.742 184.953C205.109 186.734 203.105 188.516 200.73 190.297C199.84 191.039 199.098 191.855 198.504 192.746C197.91 193.637 197.242 194.379 196.5 194.973C195.609 195.566 194.496 196.234 193.16 196.977C191.824 197.57 190.562 198.164 189.375 198.758C188.188 199.352 187.371 200.02 186.926 200.762C186.48 201.355 185.812 201.801 184.922 202.098C181.656 203.285 178.391 204.324 175.125 205.215C171.859 206.105 168.594 207.145 165.328 208.332C164.141 208.629 163.027 209.074 161.988 209.668C160.949 210.113 159.984 210.41 159.094 210.559C158.055 210.707 157.09 210.633 156.199 210.336C155.309 210.039 154.195 209.891 152.859 209.891C151.523 210.039 150.039 210.484 148.406 211.227C146.922 211.82 145.215 212.191 143.285 212.34C140.91 212.488 138.535 212.488 136.16 212.34C133.785 212.043 131.262 212.043 128.59 212.34C126.512 212.488 124.73 212.637 123.246 212.785C121.762 212.934 120.5 213.305 119.461 213.898C118.422 214.344 117.457 215.086 116.566 216.125C115.824 217.016 115.008 218.352 114.117 220.133C113.82 221.023 113.523 222.062 113.227 223.25C112.93 224.289 112.633 225.402 112.336 226.59C111.297 229.41 110.48 232.305 109.887 235.273C109.293 238.094 109.145 241.062 109.441 244.18C109.441 245.07 109.367 245.961 109.219 246.852C109.219 247.594 109.293 248.188 109.441 248.633C109.738 249.969 110.258 251.156 111 252.195C111.891 253.234 112.781 254.348 113.672 255.535C114.562 256.574 115.305 257.688 115.898 258.875C116.641 260.062 117.012 261.473 117.012 263.105C114.488 265.035 111.223 265.926 107.215 265.777C103.355 265.48 99.3477 265.332 95.1914 265.332C91.4805 265.332 88.2148 265.258 85.3945 265.109C82.5742 264.812 79.457 264.887 76.043 265.332C74.4102 265.629 72.7773 266.074 71.1445 266.668C69.6602 267.41 68.1016 267.93 66.4688 268.227C65.2812 268.375 64.0195 268.301 62.6836 268.004C61.4961 267.855 60.2344 267.93 58.8984 268.227C57.1172 268.523 55.4102 268.895 53.7773 269.34C52.1445 269.934 50.5859 270.527 49.1016 271.121C47.4688 271.715 45.8359 272.16 44.2031 272.457C42.5703 272.902 41.0117 273.051 39.5273 272.902C38.7852 270.676 38.9336 268.82 39.9727 267.336C41.0117 266 42.4219 264.738 44.2031 263.551C45.9844 262.363 47.8398 261.25 49.7695 260.211C51.5508 259.172 52.8125 257.91 53.5547 256.426C54.5938 253.754 55.8555 251.23 57.3398 248.855C58.8242 246.48 60.0859 243.809 61.125 240.84C62.1641 238.02 62.9805 235.051 63.5742 231.934C64.168 228.816 65.0586 225.848 66.2461 223.027C66.8398 221.84 67.6562 220.727 68.6953 219.688C69.7344 218.648 70.4023 217.535 70.6992 216.348C71.293 214.121 71.4414 211.82 71.1445 209.445C70.9961 206.922 71.293 204.473 72.0352 202.098C72.332 201.207 72.8516 200.391 73.5938 199.648C74.3359 198.906 74.8555 198.09 75.1523 197.199C75.5977 195.566 75.6719 193.859 75.375 192.078C75.0781 190.297 75.0039 188.59 75.1523 186.957C75.3008 185.621 75.5977 184.359 76.043 183.172C76.4883 181.984 76.8594 180.723 77.1562 179.387C77.3047 178.793 77.3047 178.125 77.1562 177.383C77.1562 176.641 77.2305 175.898 77.3789 175.156C77.9727 173.523 78.7891 171.891 79.8281 170.258C80.8672 168.625 81.6836 166.77 82.2773 164.691C83.9102 159.496 85.543 153.93 87.1758 147.992C88.957 141.906 89.6992 135.672 89.4023 129.289C89.2539 128.398 89.0312 127.582 88.7344 126.84C88.5859 125.949 88.4375 125.133 88.2891 124.391C88.1406 122.312 88.1406 120.531 88.2891 119.047C88.5859 117.563 88.3633 116.078 87.6211 114.594C87.1758 113.703 86.2852 112.516 84.9492 111.031C83.6133 109.398 82.4258 107.766 81.3867 106.133C80.4961 104.352 79.9766 102.719 79.8281 101.234C79.6797 99.75 80.6445 98.6367 82.7227 97.8945ZM147.293 191.855C149.223 190.965 150.855 189.852 152.191 188.516C153.527 187.18 155.309 186.512 157.535 186.512C158.723 185.324 159.539 183.914 159.984 182.281C160.578 180.648 161.32 179.09 162.211 177.605C164.438 176.863 165.922 175.602 166.664 173.82C167.406 172.039 168.148 170.109 168.891 168.031C169.188 167.289 169.559 166.621 170.004 166.027C170.598 165.285 171.043 164.543 171.34 163.801C173.27 159.496 174.68 155.488 175.57 151.777C176.461 147.918 176.535 143.613 175.793 138.863C175.496 136.34 174.828 134.262 173.789 132.629C172.898 130.848 171.785 129.289 170.449 127.953C169.113 126.469 167.703 125.133 166.219 123.945C164.734 122.758 163.324 121.422 161.988 119.938C160.504 119.641 158.797 119.121 156.867 118.379C155.086 117.488 153.008 117.117 150.633 117.266C149.148 117.266 147.664 117.488 146.18 117.934C144.844 118.379 143.434 118.75 141.949 119.047C139.871 122.906 138.164 127.359 136.828 132.406C135.492 137.305 133.785 141.832 131.707 145.988C131.41 146.879 130.891 147.695 130.148 148.438C129.555 149.18 129.109 149.922 128.812 150.664C128.664 151.555 128.738 152.52 129.035 153.559C129.48 154.449 129.629 155.34 129.48 156.23C129.332 157.27 129.035 158.234 128.59 159.125C128.293 159.867 127.996 160.684 127.699 161.574C127.105 163.504 126.586 165.582 126.141 167.809C125.844 170.035 125.324 172.188 124.582 174.266C123.691 177.531 122.652 180.648 121.465 183.617C120.277 186.586 120.203 189.629 121.242 192.746C124.805 193.934 129.109 194.527 134.156 194.527C139.203 194.527 143.582 193.637 147.293 191.855Z" fill="#E21212"/>
<path d="M357.211 401.969C358.102 401.82 358.992 401.82 359.883 401.969C360.922 402.266 361.961 402.562 363 402.859C364.039 403.156 365.078 403.453 366.117 403.75C367.305 404.047 368.418 404.121 369.457 403.973C370.051 403.824 371.016 403.379 372.352 402.637C373.688 401.895 375.023 400.93 376.359 399.742C377.844 398.703 379.18 397.516 380.367 396.18C381.555 394.992 382.371 393.953 382.816 393.062C383.262 392.32 383.633 391.059 383.93 389.277C384.227 387.645 384.375 386.457 384.375 385.715C384.227 384.082 383.41 382.375 381.926 380.594C380.441 378.961 378.809 378.07 377.027 377.922C375.098 377.773 373.465 378.293 372.129 379.48C370.793 380.816 369.531 382.004 368.344 383.043C368.047 383.34 367.527 383.785 366.785 384.379C366.043 385.121 365.227 385.789 364.336 386.383C363.445 387.125 362.629 387.793 361.887 388.387C361.145 388.98 360.551 389.277 360.105 389.277C358.621 389.574 357.434 389.055 356.543 387.719C355.801 386.531 355.727 384.824 356.32 382.598C356.617 381.559 357.285 380.371 358.324 379.035C359.363 377.848 360.18 376.734 360.773 375.695C361.516 374.211 362.109 372.875 362.555 371.688C363 370.648 363.742 369.609 364.781 368.57C366.414 366.789 368.492 365.379 371.016 364.34C373.688 363.301 376.359 362.633 379.031 362.336C381.852 362.039 384.523 362.262 387.047 363.004C389.57 363.746 391.648 365.008 393.281 366.789C393.727 367.234 394.098 367.977 394.395 369.016C394.84 370.055 395.211 371.02 395.508 371.91C396.398 373.691 397.363 375.473 398.402 377.254C399.59 379.035 400.332 380.816 400.629 382.598C400.777 383.34 400.777 384.305 400.629 385.492C400.629 386.828 400.703 388.09 400.852 389.277C401 393.285 400.48 396.328 399.293 398.406C398.254 400.633 396.695 403.23 394.617 406.199C393.578 407.684 392.465 409.242 391.277 410.875C390.238 412.508 389.199 413.695 388.16 414.438C387.418 415.031 386.527 415.402 385.488 415.551C384.449 415.699 383.559 415.996 382.816 416.441C381.926 417.035 381.109 417.777 380.367 418.668C379.773 419.559 379.105 420.301 378.363 420.895C376.73 421.934 374.43 422.824 371.461 423.566C368.641 424.309 366.191 424.828 364.113 425.125C359.809 425.719 355.43 425.867 350.977 425.57C346.672 425.422 343.109 424.68 340.289 423.344C338.805 422.602 337.543 421.711 336.504 420.672C335.465 419.633 334.129 418.965 332.496 418.668C330.418 418.371 328.637 418.297 327.152 418.445C325.668 418.594 324.258 418.371 322.922 417.777C319.953 416.441 317.578 414.66 315.797 412.434C314.016 410.207 312.086 407.832 310.008 405.309C309.711 404.863 309.711 404.344 310.008 403.75C310.305 403.305 310.676 402.934 311.121 402.637C310.082 401.301 308.82 400.336 307.336 399.742C306 399.148 304.812 398.258 303.773 397.07C301.844 395.289 300.582 393.062 299.988 390.391C299.395 387.719 298.949 384.824 298.652 381.707C296.723 380.816 294.867 380.223 293.086 379.926C291.75 378.887 290.711 377.625 289.969 376.141C289.375 374.805 288.707 373.469 287.965 372.133C287.223 370.945 286.406 369.758 285.516 368.57C284.625 367.383 283.883 366.047 283.289 364.562C282.844 363.227 282.473 361.742 282.176 360.109C281.879 358.477 281.508 356.77 281.062 354.988C280.172 351.426 279.43 347.641 278.836 343.633C278.391 339.477 277.871 335.395 277.277 331.387C276.98 329.457 276.758 327.602 276.609 325.82C276.609 323.891 276.609 322.109 276.609 320.477C276.906 316.766 277.352 313.055 277.945 309.344C278.539 305.484 278.465 301.773 277.723 298.211C277.574 297.469 277.277 296.578 276.832 295.539C276.387 294.5 275.867 293.461 275.273 292.422C274.68 291.383 274.012 290.492 273.27 289.75C272.676 288.859 272.082 288.34 271.488 288.191C269.707 287.598 267.629 287.672 265.254 288.414C263.027 289.008 261.098 289.676 259.465 290.418C258.426 290.715 256.867 291.309 254.789 292.199C252.859 293.09 251.598 293.906 251.004 294.648C250.262 295.688 249.891 296.875 249.891 298.211C250.039 299.547 249.816 300.957 249.223 302.441C248.926 303.48 248.406 304.371 247.664 305.113C246.922 305.855 246.402 306.598 246.105 307.34C245.809 308.082 245.734 308.824 245.883 309.566C246.18 310.309 246.254 311.051 246.105 311.793C246.105 312.684 245.883 313.648 245.438 314.688C245.141 315.578 244.844 316.617 244.547 317.805C244.102 319.883 243.805 322.109 243.656 324.484C243.508 326.711 243.285 328.863 242.988 330.941C242.543 333.316 242.023 335.617 241.43 337.844C240.984 340.07 240.91 342.445 241.207 344.969C241.504 346.75 242.172 348.754 243.211 350.98C244.398 353.207 244.844 354.766 244.547 355.656C243.953 357.438 242.246 358.477 239.426 358.773C236.605 358.922 233.934 358.922 231.41 358.773C228.738 358.477 225.992 358.18 223.172 357.883C220.5 357.586 217.977 357.512 215.602 357.66C212.039 357.809 208.477 358.402 204.914 359.441C201.352 360.332 197.863 361.148 194.449 361.891C191.184 362.633 187.77 363.449 184.207 364.34C180.645 365.379 177.23 365.23 173.965 363.895C173.668 362.559 173.816 361.148 174.41 359.664C175.004 358.18 176.266 357.586 178.195 357.883C179.977 356.25 181.684 354.691 183.316 353.207C184.949 351.574 186.508 349.793 187.992 347.863C188.586 345.488 189.699 343.188 191.332 340.961C192.816 338.734 194.004 336.285 194.895 333.613C195.34 332.277 195.562 330.941 195.562 329.605C195.711 328.121 196.156 326.785 196.898 325.598C197.492 324.559 198.383 323.816 199.57 323.371C200.758 322.926 201.648 322.258 202.242 321.367C202.391 319.734 202.02 318.695 201.129 318.25C200.387 317.656 200.016 316.84 200.016 315.801C199.867 315.059 200.164 313.723 200.906 311.793C201.648 309.863 202.316 307.859 202.91 305.781C203.949 301.922 204.84 298.359 205.582 295.094C206.324 291.828 206.992 288.266 207.586 284.406C207.734 283.367 207.734 282.254 207.586 281.066C207.586 279.879 207.734 278.914 208.031 278.172C208.477 276.688 209.367 275.277 210.703 273.941C212.039 272.605 212.93 271.121 213.375 269.488C213.672 268.301 213.672 267.039 213.375 265.703C213.078 264.367 213.078 263.031 213.375 261.695C213.672 260.508 214.043 259.543 214.488 258.801C215.082 258.059 215.676 257.168 216.27 256.129C218.199 250.488 219.906 244.477 221.391 238.094C223.023 231.562 223.023 225.477 221.391 219.836C220.648 216.719 219.684 213.75 218.496 210.93C217.457 208.109 215.973 206.18 214.043 205.141C212.855 204.547 211.52 204.25 210.035 204.25C208.699 204.25 208.031 203.582 208.031 202.246C208.031 201.207 208.699 200.391 210.035 199.797C211.371 199.203 212.93 198.758 214.711 198.461C216.641 198.016 218.496 197.719 220.277 197.57C222.207 197.422 223.691 197.348 224.73 197.348C226.809 197.199 229.035 197.719 231.41 198.906C233.934 200.094 236.309 200.688 238.535 200.688C240.613 200.688 242.766 200.762 244.992 200.91C247.219 200.91 249.371 200.984 251.449 201.133C253.824 201.281 256.051 201.207 258.129 200.91C260.355 200.613 262.656 200.465 265.031 200.465C268.891 200.316 272.676 199.871 276.387 199.129C280.246 198.238 283.883 198.164 287.297 198.906C288.484 199.945 288.781 201.059 288.188 202.246C287.742 203.285 286.926 204.398 285.738 205.586C284.551 206.773 283.289 207.961 281.953 209.148C280.617 210.336 279.652 211.523 279.059 212.711C278.465 214.789 277.871 216.867 277.277 218.945C276.684 220.875 275.793 222.73 274.605 224.512C274.309 224.957 273.789 225.328 273.047 225.625C272.453 225.922 271.934 226.367 271.488 226.961C269.41 230.078 267.629 233.492 266.145 237.203C264.66 240.914 262.953 244.773 261.023 248.781C260.43 249.227 259.762 250.043 259.02 251.23C258.277 252.418 257.609 253.383 257.016 254.125C257.461 255.016 257.535 256.055 257.238 257.242C257.09 258.43 256.867 259.617 256.57 260.805C256.273 261.992 256.051 263.105 255.902 264.145C255.754 265.184 255.902 266 256.348 266.594C256.645 267.039 257.535 267.484 259.02 267.93C260.504 268.227 261.84 268.227 263.027 267.93C265.254 267.336 267.258 266.223 269.039 264.59C270.82 262.809 272.602 261.102 274.383 259.469C276.164 257.984 278.02 256.723 279.949 255.684C282.027 254.645 284.105 253.68 286.184 252.789C288.41 251.75 290.637 250.711 292.863 249.672C295.09 248.484 297.316 247.074 299.543 245.441C302.957 242.918 306.074 240.32 308.895 237.648C311.715 234.828 314.758 232.082 318.023 229.41C319.656 228.223 321.066 227.109 322.254 226.07C323.441 225.031 324.852 224.215 326.484 223.621C327.523 223.324 328.562 223.324 329.602 223.621C330.641 223.77 331.531 223.695 332.273 223.398C333.461 222.805 334.5 221.691 335.391 220.059C336.281 218.426 337.395 217.09 338.73 216.051C339.473 215.457 340.141 215.086 340.734 214.938C341.477 214.641 342.293 214.121 343.184 213.379C344.371 212.637 345.484 211.82 346.523 210.93C347.711 210.039 349.047 209.148 350.531 208.258C351.719 207.516 352.98 206.773 354.316 206.031C355.652 205.289 356.914 204.398 358.102 203.359C360.625 201.578 363.148 199.723 365.672 197.793C368.195 195.863 370.496 194.23 372.574 192.895C373.316 192.449 373.984 192.152 374.578 192.004C375.32 191.855 375.988 191.633 376.582 191.336C378.066 190.594 379.402 189.629 380.59 188.441C381.926 187.254 383.262 186.066 384.598 184.879C385.934 183.691 387.344 182.652 388.828 181.762C390.312 180.723 391.945 180.129 393.727 179.98C395.359 179.832 396.621 180.055 397.512 180.648C398.551 181.242 399.664 181.613 400.852 181.762C402.93 184.434 403.301 188.59 401.965 194.23C401.668 195.418 401.445 196.68 401.297 198.016C401.148 199.203 400.926 200.168 400.629 200.91C400.184 201.949 399.367 203.211 398.18 204.695C397.141 206.18 395.805 207.367 394.172 208.258C392.984 209 391.574 209.816 389.941 210.707C388.457 211.598 387.121 212.191 385.934 212.488C385.043 212.785 384.227 212.859 383.484 212.711C382.891 212.414 382.223 212.34 381.48 212.488C379.699 213.082 378.289 214.195 377.25 215.828C376.359 217.312 375.617 218.797 375.023 220.281C372.5 222.359 369.828 224.066 367.008 225.402C364.188 226.59 361.441 228 358.77 229.633C355.801 231.266 352.906 232.75 350.086 234.086C347.266 235.422 344.445 236.832 341.625 238.316C338.062 240.098 334.723 242.398 331.605 245.219C328.488 248.039 325.223 250.562 321.809 252.789C318.246 254.867 314.758 257.168 311.344 259.691C308.078 262.066 305.109 264.664 302.438 267.484C301.547 267.781 300.137 268.375 298.207 269.266C296.277 270.156 295.164 271.195 294.867 272.383C294.719 272.977 294.867 273.645 295.312 274.387C295.906 275.129 296.574 275.945 297.316 276.836C298.059 277.578 298.727 278.246 299.32 278.84C300.062 279.285 300.508 279.582 300.656 279.73C301.398 280.324 302.066 280.77 302.66 281.066C303.402 281.215 304.07 281.512 304.664 281.957C306.445 283.441 308.004 285.074 309.34 286.855C310.824 288.488 311.938 290.344 312.68 292.422C313.422 294.352 314.09 296.578 314.684 299.102C315.426 301.625 316.168 304.148 316.91 306.672C317.801 309.641 318.691 312.461 319.582 315.133C320.621 317.805 321.438 320.922 322.031 324.484C322.773 329.531 323.367 334.652 323.812 339.848C324.258 345.043 325.223 349.941 326.707 354.543C327.004 355.285 327.152 356.102 327.152 356.992C327.301 357.734 327.523 358.477 327.82 359.219C328.117 359.961 328.414 360.629 328.711 361.223C329.008 361.965 329.23 362.707 329.379 363.449C329.527 364.488 329.453 365.602 329.156 366.789C329.008 368.125 329.082 369.164 329.379 369.906C329.676 370.648 330.27 371.836 331.16 373.469C332.199 375.102 333.016 376.289 333.609 377.031C334.352 378.219 335.168 379.406 336.059 380.594C337.098 381.93 338.062 383.266 338.953 384.602C339.992 385.938 340.883 387.273 341.625 388.609C342.516 389.945 343.406 391.133 344.297 392.172C346.078 394.25 348.23 396.031 350.754 397.516C353.277 399 355.43 400.484 357.211 401.969Z" fill="#E21212"/>
</svg>
